<svg id="SvgjsSvg1001" width="288" height="288" xmlns="http://www.w3.org/2000/svg" version="1.1" xmlns:xlink="http://www.w3.org/1999/xlink" xmlns:svgjs="http://svgjs.com/svgjs"><defs id="SvgjsDefs1002"></defs><g id="SvgjsG1008" transform="matrix(0.916700005531311,0,0,0.916700005531311,11.995251655578613,11.995182991027832)"><svg xmlns="http://www.w3.org/2000/svg" enable-background="new 0 0 462.834 462.834" viewBox="0 0 462.834 462.834" width="288" height="288"><path d="M409.2,401.397c3.597-5.118,5.717-11.346,5.717-18.063c0-16.446-12.671-29.981-28.763-31.374
	c3.014-4.829,4.763-10.526,4.763-16.626c0-17.369-14.131-31.5-31.5-31.5h-152c-22.332,0-40.5-18.168-40.5-40.5
	c0-21.363,9.26-41.64,25.419-55.646l66.748-58.153c1.58,0.521,3.231,0.788,4.887,0.788c3.599,0,7.214-1.243,10.141-3.779
	l17.447-15.12c6.459-5.598,7.16-15.406,1.563-21.865l-0.687-0.793l83.505-80.018c2.869-2.749,3.096-7.258,0.518-10.281l-13.5-15.833
	c-2.622-3.076-7.21-3.521-10.374-1.005l-90.589,72.014l-0.308-0.356c-5.598-6.459-15.406-7.159-21.864-1.563l-17.447,15.12
	c-3.129,2.711-5.015,6.479-5.31,10.609c-0.116,1.629,0.03,3.236,0.404,4.779l-66.409,57.86
	c-29.96,25.967-47.143,63.598-47.143,103.242c0,13.961,2.843,27.75,8.273,40.5h-8.773c-17.369,0-31.5,14.131-31.5,31.5
	c0,6.1,1.748,11.797,4.763,16.626c-16.091,1.393-28.763,14.927-28.763,31.374c0,6.717,2.12,12.945,5.717,18.063
	c-12.593,4.126-21.717,15.983-21.717,29.937c0,17.369,14.131,31.5,31.5,31.5h336c17.369,0,31.5-14.131,31.5-31.5
	C430.917,417.38,421.793,405.523,409.2,401.397z M356.245,17.881l4.207,4.934l-77.854,74.603l-10.771-12.428L356.245,17.881z
	 M232.198,98.181l17.447-15.12c0.095-0.082,0.211-0.122,0.328-0.122c0.14,0,0.279,0.058,0.378,0.172l31.435,36.271
	c0.034,0.039,0.136,0.157,0.121,0.363c-0.015,0.207-0.133,0.309-0.171,0.342l-17.447,15.12c-0.208,0.18-0.525,0.158-0.705-0.05l0,0
	l-31.435-36.271c-0.034-0.039-0.136-0.157-0.121-0.363S232.159,98.214,232.198,98.181z M118.917,263.334
	c0-35.292,15.296-68.791,41.981-91.919l65.1-56.72l21.614,24.94l-65.116,56.731c-19.434,16.844-30.58,41.252-30.58,66.968
	c0,15.964,6.784,30.366,17.61,40.5h-40.771C122.315,291.362,118.917,277.452,118.917,263.334z M103.417,318.834h256
	c9.098,0,16.5,7.402,16.5,16.5s-7.402,16.5-16.5,16.5h-256c-9.098,0-16.5-7.402-16.5-16.5S94.319,318.834,103.417,318.834z
	 M79.417,366.834h24h256h24c9.098,0,16.5,7.402,16.5,16.5s-7.402,16.5-16.5,16.5h-304c-9.098,0-16.5-7.402-16.5-16.5
	S70.319,366.834,79.417,366.834z M399.417,447.834h-336c-9.098,0-16.5-7.402-16.5-16.5s7.402-16.5,16.5-16.5h16h304h16
	c9.098,0,16.5,7.402,16.5,16.5S408.515,447.834,399.417,447.834z" fill="#52cc99" class="color000 svgShape"></path></svg></g></svg>